/* XPM */
static char * cam1_xpm[] = {
"16 16 6 1",
" 	c None",
".	c #000000",
"+	c #FFFFFF",
"@	c #C0C0C0",
"#	c #808080",
"$	c #7F0000",
"  ...           ",
"  .++...        ",
"  .@@+++.       ",
" ..@@@@@...     ",
".+.##...+++.    ",
".+...@@@@@@.    ",
".+@@@@@$$@@.  ..",
".+@@@$$$$@@...+.",
".+@@@@@$$@@.+.@.",
".+@@@@@$$@@.@.@.",
".+@@@@@$$@@.#.@.",
".+@@@@@$$@@...#.",
".+@@@@@$$@@.  ..",
".+@@@$$$$$$.    ",
".##########.    ",
" ..........     "};
