/* XPM */
static char * input_xpm[] = {
"16 16 21 1",
" 	c #E0E7B6",
".	c #FDFDFD",
"+	c #505050",
"@	c #FBFBFB",
"#	c #000000",
"$	c #E2E2E2",
"%	c #090909",
"&	c #040404",
"*	c #8F8F8F",
"=	c #167020",
"-	c #565656",
";	c #010101",
">	c #1C1C1C",
",	c #E5E5E5",
"'	c #292929",
")	c #757575",
"!	c #B2B2B2",
"~	c #0F0F0F",
"{	c #9A9A9A",
"]	c #494949",
"^	c #C7C7C7",
"                ",
"                ",
"      .+@  #####",
"      $%&* #====",
"        -;>#====",
"############====",
"        ,')#====",
"       !~{ #====",
"       ]^  #====",
"      $%&* #====",
"        -;>#====",
"############====",
"        ,')#====",
"       !~{ #####",
"       ]^       ",
"                "};
